<?xml version="1.0" encoding="UTF-8" standalone="no"?><svg xmlns="http://www.w3.org/2000/svg" xmlns:xlink="http://www.w3.org/1999/xlink" contentStyleType="text/css" height="165px" preserveAspectRatio="none" style="width:103px;height:165px;background:#FFFFFF;" version="1.1" viewBox="0 0 103 165" width="103px" zoomAndPan="magnify"><defs/><g><!--MD5=[053775fa833a74e4512a683785ed3ce5]
entity Jack--><g id="elem_Jack"><rect fill="#F1F1F1" height="46.2969" rx="2.5" ry="2.5" style="stroke:#181818;stroke-width:0.5;" width="69" x="17.5" y="7"/><rect fill="#F1F1F1" height="10" style="stroke:#181818;stroke-width:0.5;" width="15" x="66.5" y="12"/><rect fill="#F1F1F1" height="2" style="stroke:#181818;stroke-width:0.5;" width="4" x="64.5" y="14"/><rect fill="#F1F1F1" height="2" style="stroke:#181818;stroke-width:0.5;" width="4" x="64.5" y="18"/><text fill="#000000" font-family="sans-serif" font-size="14" lengthAdjust="spacing" textLength="29" x="32.5" y="39.9951">Jack</text></g><!--MD5=[84a9a6a91d5b0e4b6bc68bde41b67f9a]
entity Natalie--><g id="elem_Natalie"><rect fill="#F1F1F1" height="46.2969" rx="2.5" ry="2.5" style="stroke:#181818;stroke-width:0.5;" width="90" x="7" y="113"/><rect fill="#F1F1F1" height="10" style="stroke:#181818;stroke-width:0.5;" width="15" x="77" y="118"/><rect fill="#F1F1F1" height="2" style="stroke:#181818;stroke-width:0.5;" width="4" x="75" y="120"/><rect fill="#F1F1F1" height="2" style="stroke:#181818;stroke-width:0.5;" width="4" x="75" y="124"/><text fill="#000000" font-family="sans-serif" font-size="14" lengthAdjust="spacing" textLength="50" x="22" y="145.9951">Natalie</text></g><!--MD5=[676a2562a934eab01b5374cfc7909568]
link Jack to Natalie--><g id="link_Jack_Natalie"><path d="M52,53.056 C52,69.0503 52,90.7785 52,107.8418 " fill="none" id="Jack-to-Natalie" style="stroke:#181818;stroke-width:1.0;stroke-dasharray:7.0,7.0;"/><polygon fill="#181818" points="52,112.9761,56,103.9761,52,107.9761,48,103.9761,52,112.9761" style="stroke:#181818;stroke-width:1.0;"/></g><!--MD5=[defac1eaf5fd7bbf9d439849f482052f]
@startuml
[Jack] ..> [Natalie]
@enduml

PlantUML version 1.2022.10beta1(Unknown compile time)
(GPL source distribution)
Java Runtime: Java(TM) SE Runtime Environment
JVM: Java HotSpot(TM) 64-Bit Server VM
Default Encoding: UTF-8
Language: en
Country: US
--></g></svg>