<svg xmlns="http://www.w3.org/2000/svg" xmlns:xlink="http://www.w3.org/1999/xlink" contentStyleType="text/css" data-diagram-type="DESCRIPTION" height="165px" preserveAspectRatio="none" style="width:100px;height:165px;background:#FFFFFF;" version="1.1" viewBox="0 0 100 165" width="100px" zoomAndPan="magnify"><defs/><g><!--entity Johnny--><g class="entity" data-entity="Johnny" id="entity_Johnny"><rect fill="#F1F1F1" height="46.2969" rx="2.5" ry="2.5" style="stroke:#181818;stroke-width:0.5;" width="87.5986" x="7" y="7"/><rect fill="#F1F1F1" height="10" style="stroke:#181818;stroke-width:0.5;" width="15" x="74.5986" y="12"/><rect fill="#F1F1F1" height="2" style="stroke:#181818;stroke-width:0.5;" width="4" x="72.5986" y="14"/><rect fill="#F1F1F1" height="2" style="stroke:#181818;stroke-width:0.5;" width="4" x="72.5986" y="18"/><text fill="#000000" font-family="sans-serif" font-size="14" lengthAdjust="spacing" textLength="47.5986" x="22" y="39.9951">Johnny</text></g><!--entity Amber--><g class="entity" data-entity="Amber" id="entity_Amber"><rect fill="#F1F1F1" height="46.2969" rx="2.5" ry="2.5" style="stroke:#181818;stroke-width:0.5;" width="86.4707" x="7.56" y="113.29"/><rect fill="#F1F1F1" height="10" style="stroke:#181818;stroke-width:0.5;" width="15" x="74.0307" y="118.29"/><rect fill="#F1F1F1" height="2" style="stroke:#181818;stroke-width:0.5;" width="4" x="72.0307" y="120.29"/><rect fill="#F1F1F1" height="2" style="stroke:#181818;stroke-width:0.5;" width="4" x="72.0307" y="124.29"/><text fill="#000000" font-family="sans-serif" font-size="14" lengthAdjust="spacing" textLength="46.4707" x="22.56" y="146.2851">Amber</text></g><!--link Johnny to Amber--><g class="link" data-entity-1="Johnny" data-entity-2="Amber" data-source-line="1" data-uid="lnk4" id="link_Johnny_Amber"><path d="M50.8,53.78 C50.8,71.27 50.8,89.37 50.8,106.85 " fill="none" id="Johnny-to-Amber" style="stroke:#181818;stroke-width:1;stroke-dasharray:7.0,7.0;"/><polygon fill="#181818" points="50.8,112.85,54.8,103.85,50.8,107.85,46.8,103.85,50.8,112.85" style="stroke:#181818;stroke-width:1;"/></g><!--SRC=[Y_RApyZBgunLqDEpKuXsp4rABOe50000]--></g></svg>