<?xml version="1.0" encoding="UTF-8" standalone="no"?><svg xmlns="http://www.w3.org/2000/svg" xmlns:xlink="http://www.w3.org/1999/xlink" contentStyleType="text/css" height="165px" preserveAspectRatio="none" style="width:112px;height:165px;background:#FFFFFF;" version="1.1" viewBox="0 0 112 165" width="112px" zoomAndPan="magnify"><defs/><g><!--MD5=[3cd0942457eb7f6bb36e3ca7d0b27bcc]
entity James--><g id="elem_James"><rect fill="#F1F1F1" height="46.2969" rx="2.5" ry="2.5" style="stroke:#181818;stroke-width:0.5;" width="82" x="15.5" y="7"/><rect fill="#F1F1F1" height="10" style="stroke:#181818;stroke-width:0.5;" width="15" x="77.5" y="12"/><rect fill="#F1F1F1" height="2" style="stroke:#181818;stroke-width:0.5;" width="4" x="75.5" y="14"/><rect fill="#F1F1F1" height="2" style="stroke:#181818;stroke-width:0.5;" width="4" x="75.5" y="18"/><text fill="#000000" font-family="sans-serif" font-size="14" lengthAdjust="spacing" textLength="42" x="30.5" y="39.9951">James</text></g><!--MD5=[7bd975424d8c5ab54628d45310b963ec]
entity Dorothy--><g id="elem_Dorothy"><rect fill="#F1F1F1" height="46.2969" rx="2.5" ry="2.5" style="stroke:#181818;stroke-width:0.5;" width="99" x="7" y="113"/><rect fill="#F1F1F1" height="10" style="stroke:#181818;stroke-width:0.5;" width="15" x="86" y="118"/><rect fill="#F1F1F1" height="2" style="stroke:#181818;stroke-width:0.5;" width="4" x="84" y="120"/><rect fill="#F1F1F1" height="2" style="stroke:#181818;stroke-width:0.5;" width="4" x="84" y="124"/><text fill="#000000" font-family="sans-serif" font-size="14" lengthAdjust="spacing" textLength="59" x="22" y="145.9951">Dorothy</text></g><!--MD5=[0db13d28942e52e7a6f2ee85ba0df6ba]
link James to Dorothy--><g id="link_James_Dorothy"><path d="M56.5,53.056 C56.5,69.0503 56.5,90.7785 56.5,107.8418 " fill="none" id="James-to-Dorothy" style="stroke:#181818;stroke-width:1.0;stroke-dasharray:7.0,7.0;"/><polygon fill="#181818" points="56.5,112.9761,60.5,103.9761,56.5,107.9761,52.5,103.9761,56.5,112.9761" style="stroke:#181818;stroke-width:1.0;"/></g><!--MD5=[a4d8331acfb1d7c2e7b9f859d1047359]
@startuml
[James] ..> [Dorothy]
@enduml

PlantUML version 1.2022.10beta1(Unknown compile time)
(GPL source distribution)
Java Runtime: Java(TM) SE Runtime Environment
JVM: Java HotSpot(TM) 64-Bit Server VM
Default Encoding: UTF-8
Language: en
Country: US
--></g></svg>