<?xml version="1.0" encoding="us-ascii" standalone="no"?><svg xmlns="http://www.w3.org/2000/svg" xmlns:xlink="http://www.w3.org/1999/xlink" contentStyleType="text/css" height="165px" preserveAspectRatio="none" style="width:88px;height:165px;background:#FFFFFF;" version="1.1" viewBox="0 0 88 165" width="88px" zoomAndPan="magnify"><defs/><g><!--entity Bob--><g id="elem_Bob"><rect fill="#F1F1F1" height="46.2969" rx="2.5" ry="2.5" style="stroke:#181818;stroke-width:0.5;" width="69" x="10" y="7"/><rect fill="#F1F1F1" height="10" style="stroke:#181818;stroke-width:0.5;" width="15" x="59" y="12"/><rect fill="#F1F1F1" height="2" style="stroke:#181818;stroke-width:0.5;" width="4" x="57" y="14"/><rect fill="#F1F1F1" height="2" style="stroke:#181818;stroke-width:0.5;" width="4" x="57" y="18"/><text fill="#000000" font-family="sans-serif" font-size="14" lengthAdjust="spacing" textLength="29" x="25" y="39.9951">Bob</text></g><!--entity Alice--><g id="elem_Alice"><rect fill="#F1F1F1" height="46.2969" rx="2.5" ry="2.5" style="stroke:#181818;stroke-width:0.5;" width="75" x="7" y="113"/><rect fill="#F1F1F1" height="10" style="stroke:#181818;stroke-width:0.5;" width="15" x="62" y="118"/><rect fill="#F1F1F1" height="2" style="stroke:#181818;stroke-width:0.5;" width="4" x="60" y="120"/><rect fill="#F1F1F1" height="2" style="stroke:#181818;stroke-width:0.5;" width="4" x="60" y="124"/><text fill="#000000" font-family="sans-serif" font-size="14" lengthAdjust="spacing" textLength="35" x="22" y="145.9951">Alice</text></g><!--link Bob to Alice--><g id="link_Bob_Alice"><path d="M44.5,53.056 C44.5,70.7049 44.5,89.3353 44.5,106.9761 " fill="none" id="Bob-to-Alice" style="stroke:#181818;stroke-width:1.0;stroke-dasharray:7.0,7.0;"/><polygon fill="#181818" points="44.5,112.9761,48.5,103.9761,44.5,107.9761,40.5,103.9761,44.5,112.9761" style="stroke:#181818;stroke-width:1.0;"/></g><!--SRC=[YtRAJufLqDEpKuXspCbCJeq50000]--></g></svg>