<?xml version="1.0" encoding="us-ascii" standalone="no"?><svg xmlns="http://www.w3.org/2000/svg" xmlns:xlink="http://www.w3.org/1999/xlink" contentStyleType="text/css" height="165px" preserveAspectRatio="none" style="width:99px;height:165px;background:#FFFFFF;" version="1.1" viewBox="0 0 99 165" width="99px" zoomAndPan="magnify"><defs/><g><!--entity Johnny--><g id="elem_Johnny"><rect fill="#F1F1F1" height="46.2969" rx="2.5" ry="2.5" style="stroke:#181818;stroke-width:0.5;" width="86" x="7" y="7"/><rect fill="#F1F1F1" height="10" style="stroke:#181818;stroke-width:0.5;" width="15" x="73" y="12"/><rect fill="#F1F1F1" height="2" style="stroke:#181818;stroke-width:0.5;" width="4" x="71" y="14"/><rect fill="#F1F1F1" height="2" style="stroke:#181818;stroke-width:0.5;" width="4" x="71" y="18"/><text fill="#000000" font-family="sans-serif" font-size="14" lengthAdjust="spacing" textLength="46" x="22" y="39.9951">Johnny</text></g><!--entity Amber--><g id="elem_Amber"><rect fill="#F1F1F1" height="46.2969" rx="2.5" ry="2.5" style="stroke:#181818;stroke-width:0.5;" width="85" x="7.5" y="113.29"/><rect fill="#F1F1F1" height="10" style="stroke:#181818;stroke-width:0.5;" width="15" x="72.5" y="118.29"/><rect fill="#F1F1F1" height="2" style="stroke:#181818;stroke-width:0.5;" width="4" x="70.5" y="120.29"/><rect fill="#F1F1F1" height="2" style="stroke:#181818;stroke-width:0.5;" width="4" x="70.5" y="124.29"/><text fill="#000000" font-family="sans-serif" font-size="14" lengthAdjust="spacing" textLength="45" x="22.5" y="146.2851">Amber</text></g><!--link Johnny to Amber--><g id="link_Johnny_Amber"><path d="M50,53.78 C50,71.27 50,89.37 50,106.85 " fill="none" id="Johnny-to-Amber" style="stroke:#181818;stroke-width:1.0;stroke-dasharray:7.0,7.0;"/><polygon fill="#181818" points="50,112.85,54,103.85,50,107.85,46,103.85,50,112.85" style="stroke:#181818;stroke-width:1.0;"/></g><!--SRC=[Y_RApyZBgunLqDEpKuXsp4rABOe50000]--></g></svg>