<?xml version="1.0" encoding="us-ascii" standalone="no"?><svg xmlns="http://www.w3.org/2000/svg" xmlns:xlink="http://www.w3.org/1999/xlink" contentStyleType="text/css" height="165px" preserveAspectRatio="none" style="width:85px;height:165px;background:#FFFFFF;" version="1.1" viewBox="0 0 85 165" width="85px" zoomAndPan="magnify"><defs/><g><!--entity Bob--><g id="elem_Bob"><rect fill="#F1F1F1" height="46.2969" rx="2.5" ry="2.5" style="stroke:#181818;stroke-width:0.5;" width="68" x="9" y="7"/><rect fill="#F1F1F1" height="10" style="stroke:#181818;stroke-width:0.5;" width="15" x="57" y="12"/><rect fill="#F1F1F1" height="2" style="stroke:#181818;stroke-width:0.5;" width="4" x="55" y="14"/><rect fill="#F1F1F1" height="2" style="stroke:#181818;stroke-width:0.5;" width="4" x="55" y="18"/><text fill="#000000" font-family="sans-serif" font-size="14" lengthAdjust="spacing" textLength="28" x="24" y="39.9951">Bob</text></g><!--entity Alice--><g id="elem_Alice"><rect fill="#F1F1F1" height="46.2969" rx="2.5" ry="2.5" style="stroke:#181818;stroke-width:0.5;" width="72" x="7" y="113.29"/><rect fill="#F1F1F1" height="10" style="stroke:#181818;stroke-width:0.5;" width="15" x="59" y="118.29"/><rect fill="#F1F1F1" height="2" style="stroke:#181818;stroke-width:0.5;" width="4" x="57" y="120.29"/><rect fill="#F1F1F1" height="2" style="stroke:#181818;stroke-width:0.5;" width="4" x="57" y="124.29"/><text fill="#000000" font-family="sans-serif" font-size="14" lengthAdjust="spacing" textLength="32" x="22" y="146.2851">Alice</text></g><!--link Bob to Alice--><g id="link_Bob_Alice"><path d="M43,53.78 C43,71.27 43,89.37 43,106.85 " fill="none" id="Bob-to-Alice" style="stroke:#181818;stroke-width:1.0;stroke-dasharray:7.0,7.0;"/><polygon fill="#181818" points="43,112.85,47,103.85,43,107.85,39,103.85,43,112.85" style="stroke:#181818;stroke-width:1.0;"/></g><!--SRC=[YtRAJufLqDEpKuXspCbCJeq50000]--></g></svg>