<?xml version="1.0" encoding="UTF-8" standalone="no"?><svg xmlns="http://www.w3.org/2000/svg" xmlns:xlink="http://www.w3.org/1999/xlink" contentStyleType="text/css" height="165px" preserveAspectRatio="none" style="width:102px;height:165px;background:#FFFFFF;" version="1.1" viewBox="0 0 102 165" width="102px" zoomAndPan="magnify"><defs/><g><!--MD5=[77764b3175ef2e2a51d1bea2afcc3123]
entity Johnny--><g id="elem_Johnny"><rect fill="#F1F1F1" height="46.2969" rx="2.5" ry="2.5" style="stroke:#181818;stroke-width:0.5;" width="88" x="7.5" y="7"/><rect fill="#F1F1F1" height="10" style="stroke:#181818;stroke-width:0.5;" width="15" x="75.5" y="12"/><rect fill="#F1F1F1" height="2" style="stroke:#181818;stroke-width:0.5;" width="4" x="73.5" y="14"/><rect fill="#F1F1F1" height="2" style="stroke:#181818;stroke-width:0.5;" width="4" x="73.5" y="18"/><text fill="#000000" font-family="sans-serif" font-size="14" lengthAdjust="spacing" textLength="48" x="22.5" y="39.9951">Johnny</text></g><!--MD5=[4697b442359b842b3f9b59854943e19c]
entity Amber--><g id="elem_Amber"><rect fill="#F1F1F1" height="46.2969" rx="2.5" ry="2.5" style="stroke:#181818;stroke-width:0.5;" width="89" x="7" y="113"/><rect fill="#F1F1F1" height="10" style="stroke:#181818;stroke-width:0.5;" width="15" x="76" y="118"/><rect fill="#F1F1F1" height="2" style="stroke:#181818;stroke-width:0.5;" width="4" x="74" y="120"/><rect fill="#F1F1F1" height="2" style="stroke:#181818;stroke-width:0.5;" width="4" x="74" y="124"/><text fill="#000000" font-family="sans-serif" font-size="14" lengthAdjust="spacing" textLength="49" x="22" y="145.9951">Amber</text></g><!--MD5=[a8d9af5a5be860076f8e48a25c242a38]
link Johnny to Amber--><g id="link_Johnny_Amber"><path d="M51.5,53.056 C51.5,69.0503 51.5,90.7785 51.5,107.8418 " fill="none" id="Johnny-to-Amber" style="stroke:#181818;stroke-width:1.0;stroke-dasharray:7.0,7.0;"/><polygon fill="#181818" points="51.5,112.9761,55.5,103.9761,51.5,107.9761,47.5,103.9761,51.5,112.9761" style="stroke:#181818;stroke-width:1.0;"/></g><!--MD5=[ecd8c0b6cbcc849e29b888eddaf68a9f]
@startuml
[Johnny] ..> [Amber]
@enduml

PlantUML version 1.2022.10beta1(Unknown compile time)
(GPL source distribution)
Java Runtime: Java(TM) SE Runtime Environment
JVM: Java HotSpot(TM) 64-Bit Server VM
Default Encoding: UTF-8
Language: en
Country: US
--></g></svg>