<?xml version="1.0" encoding="UTF-8" standalone="no"?><svg xmlns="http://www.w3.org/2000/svg" xmlns:xlink="http://www.w3.org/1999/xlink" contentStyleType="text/css" height="165px" preserveAspectRatio="none" style="width:88px;height:165px;background:#FFFFFF;" version="1.1" viewBox="0 0 88 165" width="88px" zoomAndPan="magnify"><defs/><g><!--MD5=[c88e65a0f892c31524c9bc6fd9ce900f]
entity Bob--><g id="elem_Bob"><rect fill="#F1F1F1" height="46.2969" rx="2.5" ry="2.5" style="stroke:#181818;stroke-width:0.5;" width="69" x="10" y="7"/><rect fill="#F1F1F1" height="10" style="stroke:#181818;stroke-width:0.5;" width="15" x="59" y="12"/><rect fill="#F1F1F1" height="2" style="stroke:#181818;stroke-width:0.5;" width="4" x="57" y="14"/><rect fill="#F1F1F1" height="2" style="stroke:#181818;stroke-width:0.5;" width="4" x="57" y="18"/><text fill="#000000" font-family="sans-serif" font-size="14" lengthAdjust="spacing" textLength="29" x="25" y="39.9951">Bob</text></g><!--MD5=[2c779ae8328ac3f1086abb313344728d]
entity Alice--><g id="elem_Alice"><rect fill="#F1F1F1" height="46.2969" rx="2.5" ry="2.5" style="stroke:#181818;stroke-width:0.5;" width="75" x="7" y="113"/><rect fill="#F1F1F1" height="10" style="stroke:#181818;stroke-width:0.5;" width="15" x="62" y="118"/><rect fill="#F1F1F1" height="2" style="stroke:#181818;stroke-width:0.5;" width="4" x="60" y="120"/><rect fill="#F1F1F1" height="2" style="stroke:#181818;stroke-width:0.5;" width="4" x="60" y="124"/><text fill="#000000" font-family="sans-serif" font-size="14" lengthAdjust="spacing" textLength="35" x="22" y="145.9951">Alice</text></g><!--MD5=[838606ef52345285279842dbe5b94377]
link Bob to Alice--><g id="link_Bob_Alice"><path d="M44.5,53.056 C44.5,69.0503 44.5,90.7785 44.5,107.8418 " fill="none" id="Bob-to-Alice" style="stroke:#181818;stroke-width:1.0;stroke-dasharray:7.0,7.0;"/><polygon fill="#181818" points="44.5,112.9761,48.5,103.9761,44.5,107.9761,40.5,103.9761,44.5,112.9761" style="stroke:#181818;stroke-width:1.0;"/></g><!--MD5=[c3aa42cd18996e26a4d63c6489a0200a]
@startuml
[Bob] ..> [Alice]
@enduml

PlantUML version 1.2022.10beta1(Unknown compile time)
(GPL source distribution)
Java Runtime: Java(TM) SE Runtime Environment
JVM: Java HotSpot(TM) 64-Bit Server VM
Default Encoding: UTF-8
Language: en
Country: US
--></g></svg>