<?xml version="1.0" encoding="us-ascii" standalone="no"?><svg xmlns="http://www.w3.org/2000/svg" xmlns:xlink="http://www.w3.org/1999/xlink" contentStyleType="text/css" height="165px" preserveAspectRatio="none" style="width:104px;height:165px;background:#FFFFFF;" version="1.1" viewBox="0 0 104 165" width="104px" zoomAndPan="magnify"><defs/><g><!--entity Robert--><g id="elem_Robert"><rect fill="#F1F1F1" height="46.2969" rx="2.5" ry="2.5" style="stroke:#181818;stroke-width:0.5;" width="91" x="7" y="7"/><rect fill="#F1F1F1" height="10" style="stroke:#181818;stroke-width:0.5;" width="15" x="78" y="12"/><rect fill="#F1F1F1" height="2" style="stroke:#181818;stroke-width:0.5;" width="4" x="76" y="14"/><rect fill="#F1F1F1" height="2" style="stroke:#181818;stroke-width:0.5;" width="4" x="76" y="18"/><text fill="#000000" font-family="sans-serif" font-size="14" lengthAdjust="spacing" textLength="51" x="22" y="39.9951">Robert</text></g><!--entity Anna--><g id="elem_Anna"><rect fill="#F1F1F1" height="46.2969" rx="2.5" ry="2.5" style="stroke:#181818;stroke-width:0.5;" width="76" x="14.5" y="113"/><rect fill="#F1F1F1" height="10" style="stroke:#181818;stroke-width:0.5;" width="15" x="70.5" y="118"/><rect fill="#F1F1F1" height="2" style="stroke:#181818;stroke-width:0.5;" width="4" x="68.5" y="120"/><rect fill="#F1F1F1" height="2" style="stroke:#181818;stroke-width:0.5;" width="4" x="68.5" y="124"/><text fill="#000000" font-family="sans-serif" font-size="14" lengthAdjust="spacing" textLength="36" x="29.5" y="145.9951">Anna</text></g><!--link Robert to Anna--><g id="link_Robert_Anna"><path d="M52.5,53.056 C52.5,70.7049 52.5,89.3353 52.5,106.9761 " fill="none" id="Robert-to-Anna" style="stroke:#181818;stroke-width:1.0;stroke-dasharray:7.0,7.0;"/><polygon fill="#181818" points="52.5,112.9761,56.5,103.9761,52.5,107.9761,48.5,103.9761,52.5,112.9761" style="stroke:#181818;stroke-width:1.0;"/></g><!--SRC=[YmxAJqejAebLqDEpKuXspCjBZ0K0]--></g></svg>