<svg xmlns="http://www.w3.org/2000/svg" xmlns:xlink="http://www.w3.org/1999/xlink" contentStyleType="text/css" data-diagram-type="DESCRIPTION" height="165px" preserveAspectRatio="none" style="width:100px;height:165px;background:#FFFFFF;" version="1.1" viewBox="0 0 100 165" width="100px" zoomAndPan="magnify"><defs/><g><!--entity Robert--><g class="entity" data-entity="Robert" id="entity_Robert"><rect fill="#F1F1F1" height="46.2969" rx="2.5" ry="2.5" style="stroke:#181818;stroke-width:0.5;" width="87.0381" x="7" y="7"/><rect fill="#F1F1F1" height="10" style="stroke:#181818;stroke-width:0.5;" width="15" x="74.0381" y="12"/><rect fill="#F1F1F1" height="2" style="stroke:#181818;stroke-width:0.5;" width="4" x="72.0381" y="14"/><rect fill="#F1F1F1" height="2" style="stroke:#181818;stroke-width:0.5;" width="4" x="72.0381" y="18"/><text fill="#000000" font-family="sans-serif" font-size="14" lengthAdjust="spacing" textLength="47.0381" x="22" y="39.9951">Robert</text></g><!--entity Anna--><g class="entity" data-entity="Anna" id="entity_Anna"><rect fill="#F1F1F1" height="46.2969" rx="2.5" ry="2.5" style="stroke:#181818;stroke-width:0.5;" width="75.9023" x="12.57" y="113.29"/><rect fill="#F1F1F1" height="10" style="stroke:#181818;stroke-width:0.5;" width="15" x="68.4723" y="118.29"/><rect fill="#F1F1F1" height="2" style="stroke:#181818;stroke-width:0.5;" width="4" x="66.4723" y="120.29"/><rect fill="#F1F1F1" height="2" style="stroke:#181818;stroke-width:0.5;" width="4" x="66.4723" y="124.29"/><text fill="#000000" font-family="sans-serif" font-size="14" lengthAdjust="spacing" textLength="35.9023" x="27.57" y="146.2851">Anna</text></g><!--link Robert to Anna--><g class="link" data-entity-1="Robert" data-entity-2="Anna" data-source-line="1" data-uid="lnk4" id="link_Robert_Anna"><path d="M50.52,53.78 C50.52,71.27 50.52,89.37 50.52,106.85 " fill="none" id="Robert-to-Anna" style="stroke:#181818;stroke-width:1;stroke-dasharray:7.0,7.0;"/><polygon fill="#181818" points="50.52,112.85,54.52,103.85,50.52,107.85,46.52,103.85,50.52,112.85" style="stroke:#181818;stroke-width:1;"/></g><!--SRC=[YmxAJqejAebLqDEpKuXspCjBZ0K0]--></g></svg>