<svg xmlns="http://www.w3.org/2000/svg" xmlns:xlink="http://www.w3.org/1999/xlink" contentStyleType="text/css" data-diagram-type="DESCRIPTION" height="165px" preserveAspectRatio="none" style="width:109px;height:165px;background:#FFFFFF;" version="1.1" viewBox="0 0 109 165" width="109px" zoomAndPan="magnify"><defs/><g><!--entity James--><g class="entity" data-entity="James" data-source-line="1" data-uid="ent0002" id="entity_James"><rect fill="#F1F1F1" height="46.2969" rx="2.5" ry="2.5" style="stroke:#181818;stroke-width:0.5;" width="82.2529" x="14.03" y="7"/><rect fill="#F1F1F1" height="10" style="stroke:#181818;stroke-width:0.5;" width="15" x="76.2829" y="12"/><rect fill="#F1F1F1" height="2" style="stroke:#181818;stroke-width:0.5;" width="4" x="74.2829" y="14"/><rect fill="#F1F1F1" height="2" style="stroke:#181818;stroke-width:0.5;" width="4" x="74.2829" y="18"/><text fill="#000000" font-family="sans-serif" font-size="14" lengthAdjust="spacing" textLength="42.2529" x="29.03" y="39.9951">James</text></g><!--entity Dorothy--><g class="entity" data-entity="Dorothy" data-source-line="1" data-uid="ent0003" id="entity_Dorothy"><rect fill="#F1F1F1" height="46.2969" rx="2.5" ry="2.5" style="stroke:#181818;stroke-width:0.5;" width="96.3145" x="7" y="113.29"/><rect fill="#F1F1F1" height="10" style="stroke:#181818;stroke-width:0.5;" width="15" x="83.3145" y="118.29"/><rect fill="#F1F1F1" height="2" style="stroke:#181818;stroke-width:0.5;" width="4" x="81.3145" y="120.29"/><rect fill="#F1F1F1" height="2" style="stroke:#181818;stroke-width:0.5;" width="4" x="81.3145" y="124.29"/><text fill="#000000" font-family="sans-serif" font-size="14" lengthAdjust="spacing" textLength="56.3145" x="22" y="146.2851">Dorothy</text></g><!--link James to Dorothy--><g class="link" data-entity-1="James" data-entity-2="Dorothy" data-source-line="1" data-uid="lnk4" id="link_James_Dorothy"><path d="M55.16,53.78 C55.16,71.27 55.16,89.37 55.16,106.85" fill="none" id="James-to-Dorothy" style="stroke:#181818;stroke-width:1;stroke-dasharray:7.0,7.0;"/><polygon fill="#181818" points="55.16,112.85,59.16,103.85,55.16,107.85,51.16,103.85,55.16,112.85" style="stroke:#181818;stroke-width:1;"/></g><!--SRC=[Y_PAp4qjZbNGqxDJY7R9ByeloQYC1G00]--></g></svg>