<svg xmlns="http://www.w3.org/2000/svg" xmlns:xlink="http://www.w3.org/1999/xlink" contentStyleType="text/css" data-diagram-type="DESCRIPTION" height="165px" preserveAspectRatio="none" style="width:86px;height:165px;background:#FFFFFF;" version="1.1" viewBox="0 0 86 165" width="86px" zoomAndPan="magnify"><defs/><g><!--entity Bob--><g class="entity" data-entity="Bob" data-source-line="1" data-uid="ent0002" id="entity_Bob"><rect fill="#F1F1F1" height="46.2969" rx="2.5" ry="2.5" style="stroke:#181818;stroke-width:0.5;" width="67.0566" x="10.31" y="7"/><rect fill="#F1F1F1" height="10" style="stroke:#181818;stroke-width:0.5;" width="15" x="57.3666" y="12"/><rect fill="#F1F1F1" height="2" style="stroke:#181818;stroke-width:0.5;" width="4" x="55.3666" y="14"/><rect fill="#F1F1F1" height="2" style="stroke:#181818;stroke-width:0.5;" width="4" x="55.3666" y="18"/><text fill="#000000" font-family="sans-serif" font-size="14" lengthAdjust="spacing" textLength="27.0566" x="25.31" y="39.9951">Bob</text></g><!--entity Alice--><g class="entity" data-entity="Alice" data-source-line="1" data-uid="ent0003" id="entity_Alice"><rect fill="#F1F1F1" height="46.2969" rx="2.5" ry="2.5" style="stroke:#181818;stroke-width:0.5;" width="73.667" x="7" y="113.29"/><rect fill="#F1F1F1" height="10" style="stroke:#181818;stroke-width:0.5;" width="15" x="60.667" y="118.29"/><rect fill="#F1F1F1" height="2" style="stroke:#181818;stroke-width:0.5;" width="4" x="58.667" y="120.29"/><rect fill="#F1F1F1" height="2" style="stroke:#181818;stroke-width:0.5;" width="4" x="58.667" y="124.29"/><text fill="#000000" font-family="sans-serif" font-size="14" lengthAdjust="spacing" textLength="33.667" x="22" y="146.2851">Alice</text></g><!--link Bob to Alice--><g class="link" data-entity-1="Bob" data-entity-2="Alice" data-source-line="1" data-uid="lnk4" id="link_Bob_Alice"><path d="M43.83,53.78 C43.83,71.27 43.83,89.37 43.83,106.85" fill="none" id="Bob-to-Alice" style="stroke:#181818;stroke-width:1;stroke-dasharray:7,7;"/><polygon fill="#181818" points="43.83,112.85,47.83,103.85,43.83,107.85,39.83,103.85,43.83,112.85" style="stroke:#181818;stroke-width:1;"/></g><!--SRC=[YtRAJufLqDEpKuXspCbCJeq50000]--></g></svg>