<?xml version="1.0" encoding="us-ascii" standalone="no"?><svg xmlns="http://www.w3.org/2000/svg" xmlns:xlink="http://www.w3.org/1999/xlink" contentStyleType="text/css" height="165px" preserveAspectRatio="none" style="width:102px;height:165px;background:#FFFFFF;" version="1.1" viewBox="0 0 102 165" width="102px" zoomAndPan="magnify"><defs/><g><!--entity Johnny--><g id="elem_Johnny"><rect fill="#F1F1F1" height="46.2969" rx="2.5" ry="2.5" style="stroke:#181818;stroke-width:0.5;" width="88" x="7.5" y="7"/><rect fill="#F1F1F1" height="10" style="stroke:#181818;stroke-width:0.5;" width="15" x="75.5" y="12"/><rect fill="#F1F1F1" height="2" style="stroke:#181818;stroke-width:0.5;" width="4" x="73.5" y="14"/><rect fill="#F1F1F1" height="2" style="stroke:#181818;stroke-width:0.5;" width="4" x="73.5" y="18"/><text fill="#000000" font-family="sans-serif" font-size="14" lengthAdjust="spacing" textLength="48" x="22.5" y="39.9951">Johnny</text></g><!--entity Amber--><g id="elem_Amber"><rect fill="#F1F1F1" height="46.2969" rx="2.5" ry="2.5" style="stroke:#181818;stroke-width:0.5;" width="89" x="7" y="113"/><rect fill="#F1F1F1" height="10" style="stroke:#181818;stroke-width:0.5;" width="15" x="76" y="118"/><rect fill="#F1F1F1" height="2" style="stroke:#181818;stroke-width:0.5;" width="4" x="74" y="120"/><rect fill="#F1F1F1" height="2" style="stroke:#181818;stroke-width:0.5;" width="4" x="74" y="124"/><text fill="#000000" font-family="sans-serif" font-size="14" lengthAdjust="spacing" textLength="49" x="22" y="145.9951">Amber</text></g><!--link Johnny to Amber--><g id="link_Johnny_Amber"><path d="M51.5,53.056 C51.5,70.7049 51.5,89.3353 51.5,106.9761 " fill="none" id="Johnny-to-Amber" style="stroke:#181818;stroke-width:1.0;stroke-dasharray:7.0,7.0;"/><polygon fill="#181818" points="51.5,112.9761,55.5,103.9761,51.5,107.9761,47.5,103.9761,51.5,112.9761" style="stroke:#181818;stroke-width:1.0;"/></g><!--SRC=[Y_RApyZBgunLqDEpKuXsp4rABOe50000]--></g></svg>