<?xml version="1.0" encoding="us-ascii" standalone="no"?><svg xmlns="http://www.w3.org/2000/svg" xmlns:xlink="http://www.w3.org/1999/xlink" contentStyleType="text/css" height="165px" preserveAspectRatio="none" style="width:108px;height:165px;background:#FFFFFF;" version="1.1" viewBox="0 0 108 165" width="108px" zoomAndPan="magnify"><defs/><g><!--entity James--><g id="elem_James"><rect fill="#F1F1F1" height="46.2969" rx="2.5" ry="2.5" style="stroke:#181818;stroke-width:0.5;" width="81" x="14" y="7"/><rect fill="#F1F1F1" height="10" style="stroke:#181818;stroke-width:0.5;" width="15" x="75" y="12"/><rect fill="#F1F1F1" height="2" style="stroke:#181818;stroke-width:0.5;" width="4" x="73" y="14"/><rect fill="#F1F1F1" height="2" style="stroke:#181818;stroke-width:0.5;" width="4" x="73" y="18"/><text fill="#000000" font-family="sans-serif" font-size="14" lengthAdjust="spacing" textLength="41" x="29" y="39.9951">James</text></g><!--entity Dorothy--><g id="elem_Dorothy"><rect fill="#F1F1F1" height="46.2969" rx="2.5" ry="2.5" style="stroke:#181818;stroke-width:0.5;" width="95" x="7" y="113.29"/><rect fill="#F1F1F1" height="10" style="stroke:#181818;stroke-width:0.5;" width="15" x="82" y="118.29"/><rect fill="#F1F1F1" height="2" style="stroke:#181818;stroke-width:0.5;" width="4" x="80" y="120.29"/><rect fill="#F1F1F1" height="2" style="stroke:#181818;stroke-width:0.5;" width="4" x="80" y="124.29"/><text fill="#000000" font-family="sans-serif" font-size="14" lengthAdjust="spacing" textLength="55" x="22" y="146.2851">Dorothy</text></g><!--link James to Dorothy--><g id="link_James_Dorothy"><path d="M54.5,53.78 C54.5,71.27 54.5,89.37 54.5,106.85 " fill="none" id="James-to-Dorothy" style="stroke:#181818;stroke-width:1.0;stroke-dasharray:7.0,7.0;"/><polygon fill="#181818" points="54.5,112.85,58.5,103.85,54.5,107.85,50.5,103.85,54.5,112.85" style="stroke:#181818;stroke-width:1.0;"/></g><!--SRC=[Y_PAp4qjZbNGqxDJY7R9ByeloQYC1G00]--></g></svg>