<svg xmlns="http://www.w3.org/2000/svg" xmlns:xlink="http://www.w3.org/1999/xlink" contentStyleType="text/css" data-diagram-type="DESCRIPTION" height="165px" preserveAspectRatio="none" style="width:102px;height:165px;background:#FFFFFF;" version="1.1" viewBox="0 0 102 165" width="102px" zoomAndPan="magnify"><defs/><g><!--entity Jack--><g class="entity" data-entity="Jack" data-source-line="1" data-uid="ent0002" id="entity_Jack"><rect fill="#F1F1F1" height="46.2969" rx="2.5" ry="2.5" style="stroke:#181818;stroke-width:0.5;" width="68.5127" x="17.5" y="7"/><rect fill="#F1F1F1" height="10" style="stroke:#181818;stroke-width:0.5;" width="15" x="66.0127" y="12"/><rect fill="#F1F1F1" height="2" style="stroke:#181818;stroke-width:0.5;" width="4" x="64.0127" y="14"/><rect fill="#F1F1F1" height="2" style="stroke:#181818;stroke-width:0.5;" width="4" x="64.0127" y="18"/><text fill="#000000" font-family="sans-serif" font-size="14" lengthAdjust="spacing" textLength="28.5127" x="32.5" y="39.9951">Jack</text></g><!--entity Natalie--><g class="entity" data-entity="Natalie" data-source-line="1" data-uid="ent0003" id="entity_Natalie"><rect fill="#F1F1F1" height="46.2969" rx="2.5" ry="2.5" style="stroke:#181818;stroke-width:0.5;" width="89.5127" x="7" y="113.29"/><rect fill="#F1F1F1" height="10" style="stroke:#181818;stroke-width:0.5;" width="15" x="76.5127" y="118.29"/><rect fill="#F1F1F1" height="2" style="stroke:#181818;stroke-width:0.5;" width="4" x="74.5127" y="120.29"/><rect fill="#F1F1F1" height="2" style="stroke:#181818;stroke-width:0.5;" width="4" x="74.5127" y="124.29"/><text fill="#000000" font-family="sans-serif" font-size="14" lengthAdjust="spacing" textLength="49.5127" x="22" y="146.2851">Natalie</text></g><!--link Jack to Natalie--><g class="link" data-entity-1="Jack" data-entity-2="Natalie" data-source-line="1" data-uid="lnk4" id="link_Jack_Natalie"><path d="M51.76,53.78 C51.76,71.27 51.76,89.37 51.76,106.85" fill="none" id="Jack-to-Natalie" style="stroke:#181818;stroke-width:1;stroke-dasharray:7,7;"/><polygon fill="#181818" points="51.76,112.85,55.76,103.85,51.76,107.85,47.76,103.85,51.76,112.85" style="stroke:#181818;stroke-width:1;"/></g><!--SRC=[Y_PAJCwELT3JirE8zaiiISp9J8q50000]--></g></svg>